<?xml version="1.0" encoding="UTF-8"?>
<svg width="32" height="32" viewBox="0 0 32 32" fill="none" xmlns="http://www.w3.org/2000/svg">
  <path d="M16 0C7.163 0 0 7.163 0 16C0 24.837 7.163 32 16 32C24.837 32 32 24.837 32 16C32 7.163 24.837 0 16 0Z" fill="#0B2540"/>
  <path d="M23.5 16C23.5 20.1421 20.1421 23.5 16 23.5C11.8579 23.5 8.5 20.1421 8.5 16C8.5 11.8579 11.8579 8.5 16 8.5C20.1421 8.5 23.5 11.8579 23.5 16Z" stroke="#00F2FE" stroke-width="3"/>
  <path d="M19.5 16C19.5 17.933 17.933 19.5 16 19.5C14.067 19.5 12.5 17.933 12.5 16C12.5 14.067 14.067 12.5 16 12.5C17.933 12.5 19.5 14.067 19.5 16Z" fill="#00F2FE"/>
</svg> 