<?xml version="1.0" encoding="UTF-8"?>
<svg width="35" height="33" viewBox="0 0 35 33" fill="none" xmlns="http://www.w3.org/2000/svg">
  <path d="M32.9583 1L19.8242 10.7183L22.2666 4.99099L32.9583 1Z" fill="#E17726" stroke="#E17726" stroke-width="0.25" stroke-linecap="round" stroke-linejoin="round"/>
  <path d="M2.04166 1L15.0573 10.809L12.7334 4.99098L2.04166 1Z" fill="#E27625" stroke="#E27625" stroke-width="0.25" stroke-linecap="round" stroke-linejoin="round"/>
  <path d="M28.2976 23.5333L24.7722 28.872L32.2871 30.9321L34.4136 23.6514L28.2976 23.5333Z" fill="#E27625" stroke="#E27625" stroke-width="0.25" stroke-linecap="round" stroke-linejoin="round"/>
  <path d="M0.60376 23.6514L2.71288 30.9321L10.2278 28.872L6.70242 23.5333L0.60376 23.6514Z" fill="#E27625" stroke="#E27625" stroke-width="0.25" stroke-linecap="round" stroke-linejoin="round"/>
  <path d="M9.86377 14.4974L7.77197 17.6355L15.2084 17.9898L14.9722 9.95264L9.86377 14.4974Z" fill="#E27625" stroke="#E27625" stroke-width="0.25" stroke-linecap="round" stroke-linejoin="round"/>
  <path d="M25.1362 14.4974L19.9493 9.86426L19.8242 17.9898L27.2606 17.6355L25.1362 14.4974Z" fill="#E27625" stroke="#E27625" stroke-width="0.25" stroke-linecap="round" stroke-linejoin="round"/>
  <path d="M10.2278 28.872L14.7973 26.7119L10.8491 23.7041L10.2278 28.872Z" fill="#E27625" stroke="#E27625" stroke-width="0.25" stroke-linecap="round" stroke-linejoin="round"/>
  <path d="M20.2026 26.7119L24.7722 28.872L24.1509 23.7041L20.2026 26.7119Z" fill="#E27625" stroke="#E27625" stroke-width="0.25" stroke-linecap="round" stroke-linejoin="round"/>
</svg> 